<?xml version="1.0" encoding="utf-8"?>
<!-- Generator: Adobe Illustrator 26.0.3, SVG Export Plug-In . SVG Version: 6.00 Build 0)  -->
<svg version="1.1" id="Calque_1" xmlns="http://www.w3.org/2000/svg" xmlns:xlink="http://www.w3.org/1999/xlink" x="0px" y="0px"
	 viewBox="0 0 38 38" style="enable-background:new 0 0 38 38;" xml:space="preserve">
<style type="text/css">
	.st0{fill:#BB111E;stroke:#FFFFFF;stroke-width:0.237;stroke-linecap:round;stroke-linejoin:round;stroke-miterlimit:10;}
	.st1{fill:#950E12;stroke:#FFFFFF;stroke-width:0.237;stroke-linecap:round;stroke-linejoin:round;stroke-miterlimit:10;}
	.st2{fill:#D30018;stroke:#FFFFFF;stroke-width:0.237;stroke-linecap:round;stroke-linejoin:round;stroke-miterlimit:10;}
	.st3{fill:#D00F1E;stroke:#FFFFFF;stroke-width:0.237;stroke-linecap:round;stroke-linejoin:round;stroke-miterlimit:10;}
	.st4{fill:#B3101B;stroke:#FFFFFF;stroke-width:0.237;stroke-linecap:round;stroke-linejoin:round;stroke-miterlimit:10;}
	.st5{fill:#CB1221;stroke:#FFFFFF;stroke-width:0.237;stroke-linecap:round;stroke-linejoin:round;stroke-miterlimit:10;}
	.st6{fill:#E5001C;stroke:#FFFFFF;stroke-width:0.237;stroke-linecap:round;stroke-linejoin:round;stroke-miterlimit:10;}
	.st7{fill:#980E14;stroke:#FFFFFF;stroke-width:0.237;stroke-linecap:round;stroke-linejoin:round;stroke-miterlimit:10;}
	.st8{fill:#D40C20;stroke:#FFFFFF;stroke-width:0.237;stroke-linecap:round;stroke-linejoin:round;stroke-miterlimit:10;}
	.st9{fill:#A20F17;stroke:#FFFFFF;stroke-width:0.237;stroke-linecap:round;stroke-linejoin:round;stroke-miterlimit:10;}
	.st10{fill:#BB111E;stroke:#FFFFFF;stroke-width:0.237;stroke-linejoin:round;stroke-miterlimit:10;}
	.st11{fill:#8D0C10;stroke:#FFFFFF;stroke-width:0.237;stroke-linecap:round;stroke-linejoin:round;stroke-miterlimit:10;}
	.st12{fill:#A30F17;stroke:#FFFFFF;stroke-width:0.237;stroke-linecap:round;stroke-linejoin:round;stroke-miterlimit:10;}
	.st13{fill:#D70A1F;stroke:#FFFFFF;stroke-width:0.237;stroke-linecap:round;stroke-linejoin:round;stroke-miterlimit:10;}
	.st14{fill:#AA1019;stroke:#FFFFFF;stroke-width:0.237;stroke-linecap:round;stroke-linejoin:round;stroke-miterlimit:10;}
	.st15{fill:#BB111E;stroke:#FFFFFF;stroke-width:0.1185;stroke-linecap:round;stroke-linejoin:round;stroke-miterlimit:10;}
	.st16{fill:none;stroke:#FFFFFF;stroke-width:0.1185;stroke-linecap:round;stroke-linejoin:round;stroke-miterlimit:10;}
	.st17{fill:#A20F17;stroke:#FFFFFF;stroke-width:0.1185;stroke-linecap:round;stroke-linejoin:round;stroke-miterlimit:10;}
</style>
<g>
	<polygon class="st0" points="14.2,6.5 19.8,13.4 4.1,12.6 	"/>
	<polygon class="st1" points="8.3,12.8 19.8,13.4 10.7,18.3 	"/>
	<polygon class="st2" points="8.4,18.6 4.1,26.2 2.7,18.7 	"/>
	<polygon class="st1" points="2.7,18.7 0.7,28.8 4.1,26.2 	"/>
	<polygon class="st3" points="4.1,12.6 8.4,18.6 8.3,12.8 	"/>
	<polygon class="st4" points="0.7,28.8 4.1,26.2 5.1,33.3 	"/>
	<polygon class="st5" points="0.7,28.8 5.1,33.3 2.8,33.7 	"/>
	<polygon class="st4" points="2.8,33.7 7,33 8.1,36 	"/>
	<polygon class="st6" points="7,33 8.1,36 12.4,31.8 	"/>
	<polygon class="st0" points="9.2,32.5 12.4,31.8 11.1,28.2 	"/>
	<polygon class="st5" points="10.2,30.3 11.1,28.2 8,26.8 	"/>
	<polygon class="st7" points="8,26.8 9.2,28.6 6.9,30 	"/>
	<polygon class="st8" points="19.8,13.4 14.2,6.5 25.8,3.9 	"/>
	<polygon class="st9" points="37.3,8.1 34.4,14.9 27,13.8 	"/>
	<polygon class="st5" points="31,3.8 37.3,8.1 30.6,11.8 	"/>
	<polygon class="st10" points="31,3.8 25.5,2 30.6,11.8 	"/>
	<polygon class="st11" points="27,13.8 25.5,2 30.6,11.8 	"/>
	<polygon class="st12" points="8.4,18.6 4.1,12.6 2.7,18.7 	"/>
	<polygon class="st0" points="8.3,12.8 10.7,18.3 8.5,25.6 	"/>
	<polygon class="st13" points="19.8,13.4 22,9.9 33.2,18.8 	"/>
	<polygon class="st14" points="25.8,3.9 22,9.9 27,13.8 	"/>
	<g>
		<path class="st15" d="M33.1,5.2c0.2,1.1-0.6,2-1.6,2.2c-1.1,0.2-2-0.6-2.2-1.6c-0.2-1.1,0.6-2,1.6-2.2C32,3.4,33,4.1,33.1,5.2"/>
		<path class="st16" d="M33.1,5.2c0.2,1.1-0.6,2-1.6,2.2c-1.1,0.2-2-0.6-2.2-1.6c-0.2-1.1,0.6-2,1.6-2.2C32,3.4,33,4.1,33.1,5.2z"/>
		<path class="st17" d="M32.8,5.3c0.1,0.7-0.4,1.3-1.1,1.4c-0.7,0.1-1.3-0.4-1.4-1.1c-0.1-0.7,0.4-1.3,1.1-1.4
			C32.1,4.1,32.7,4.6,32.8,5.3"/>
		<path class="st16" d="M32.8,5.3c0.1,0.7-0.4,1.3-1.1,1.4c-0.7,0.1-1.3-0.4-1.4-1.1c-0.1-0.7,0.4-1.3,1.1-1.4
			C32.1,4.1,32.7,4.6,32.8,5.3z"/>
		<path class="st15" d="M32.3,5.4c0,0.2-0.1,0.4-0.3,0.4c-0.2,0-0.4-0.1-0.4-0.3c0-0.2,0.1-0.4,0.3-0.4C32.1,5.1,32.2,5.2,32.3,5.4"
			/>
		<path class="st16" d="M32.3,5.4c0,0.2-0.1,0.4-0.3,0.4c-0.2,0-0.4-0.1-0.4-0.3c0-0.2,0.1-0.4,0.3-0.4C32.1,5.1,32.2,5.2,32.3,5.4z
			"/>
	</g>
</g>
</svg>
